<?xml version="1.0" encoding="utf-8"?>
<!-- Generator: Adobe Illustrator 22.1.0, SVG Export Plug-In . SVG Version: 6.00 Build 0)  -->
<svg version="1.1" id="Layer_1" xmlns="http://www.w3.org/2000/svg" xmlns:xlink="http://www.w3.org/1999/xlink" x="0px" y="0px"
	 viewBox="0 0 120.6 125.3" style="enable-background:new 0 0 120.6 125.3;" xml:space="preserve">
<style type="text/css">
	.st0{fill:#EC0000;}
</style>
<g>
	<g>
		<path class="st0" d="M48.1,5.6C40.2,7,34.9,14.6,36.3,22.4l28.6-5C63.5,9.5,56,4.2,48.1,5.6z"/>
		<path class="st0" d="M65.6,21.3l-28.6,5l9.7,93.6l41.8-7.4L65.6,21.3z M46.4,35.6l2.2-3.2l4.8,3.4l3.4-4.8l3.2,2.2L56.6,38
			l4.8,3.4l-2.2,3.2l-4.8-3.4L51,46l-3.2-2.2l3.4-4.8L46.4,35.6z M49.3,51.9l2.2-3.2l4.8,3.4l3.4-4.8l3.2,2.2l-3.4,4.8l4.8,3.4
			l-2.2,3.2l-4.8-3.4l-3.4,4.8l-3.2-2.2l3.4-4.8L49.3,51.9z M60.1,73.8l-3.4,4.8l-3.2-2.2l3.4-4.8l-4.8-3.4l2.2-3.2l4.8,3.4l3.4-4.8
			l3.2,2.2l-3.4,4.8l4.8,3.4l-2.2,3.2L60.1,73.8z"/>
	</g>
</g>
</svg>
