<?xml version="1.0" encoding="utf-8"?>
<!-- Generator: Adobe Illustrator 22.1.0, SVG Export Plug-In . SVG Version: 6.00 Build 0)  -->
<svg version="1.1" id="Layer_1" xmlns="http://www.w3.org/2000/svg" xmlns:xlink="http://www.w3.org/1999/xlink" x="0px" y="0px"
	 viewBox="0 0 248.9 255.9" style="enable-background:new 0 0 248.9 255.9;" xml:space="preserve">
<style type="text/css">
	.st0{fill:#EC0000;}
	.st1{fill:#FFFFFF;}
</style>
<g>
	
		<rect x="19.5" y="17.8" transform="matrix(0.9848 -0.1736 0.1736 0.9848 -19.4301 23.4753)" class="st0" width="209.9" height="209.9"/>
	<g>
		<path class="st1" d="M54.8,108.3c-7.9,1.4-13.2,8.9-11.8,16.8l28.6-5C70.2,112.2,62.7,106.9,54.8,108.3z"/>
		<path class="st1" d="M72.3,124l-28.6,5l9.7,93.6l41.8-7.4L72.3,124z M53.1,138.2l2.2-3.2l4.8,3.4l3.4-4.8l3.2,2.2l-3.4,4.8
			l4.8,3.4l-2.2,3.2l-4.8-3.4l-3.4,4.8l-3.2-2.2l3.4-4.8L53.1,138.2z M55.9,154.6l2.2-3.2l4.8,3.4l3.4-4.8l3.2,2.2l-3.4,4.8l4.8,3.4
			l-2.2,3.2l-4.8-3.4l-3.4,4.8l-3.2-2.2l3.4-4.8L55.9,154.6z M66.8,176.5l-3.4,4.8l-3.2-2.2l3.4-4.8l-4.8-3.4l2.2-3.2l4.8,3.4
			l3.4-4.8l3.2,2.2l-3.4,4.8l4.8,3.4l-2.2,3.2L66.8,176.5z"/>
	</g>
	<g>
		<path class="st1" d="M55.3,47.8L58.5,72c0.6,3.9,1.2,7.6,1.9,11.8l-0.3,0c-1.4-4.1-3-7.7-4.4-11.4l-4.9-11.8L44,61.9l-0.7,12.8
			c-0.1,4.1-0.3,8-0.2,12.2l-0.3,0c-0.8-4.1-1.5-7.8-2.2-11.8l-5.3-23.9l-11.6,2l14.2,45.5l11.6-2l-0.1-14.2c0-3.1-0.2-6.3-0.4-9.2
			l0.2,0c0.6,2.8,1.7,5.9,2.8,8.8l4.9,13.3l11.8-2.1l-2.6-47.5L55.3,47.8z"/>
		<path class="st1" d="M88.7,79l13.5-2.4l4.5,10.1l11.9-2.1L96,40.6L82.5,43L76.4,92l11.5-2L88.7,79z M90.4,50.3l0.3-0.1
			c1.9,4.6,4.3,9.9,6.2,14.3l1.6,3.7l-9.2,1.6l0.3-4C89.8,61.1,90.1,55.3,90.4,50.3z"/>
		<path class="st1" d="M133.1,71.1l13.5-2.4l4.5,10.1l11.9-2.1l-22.5-44l-13.5,2.4l-6.1,49.1l11.5-2L133.1,71.1z M134.8,42.5l0.3,0
			c1.9,4.6,4.3,9.9,6.2,14.3l1.6,3.7l-9.2,1.6l0.3-4C134.2,53.2,134.5,47.5,134.8,42.5z"/>
		<path class="st1" d="M180.7,73.7l-2.9-16.3l5.1-0.9l11.4,14.8l12.6-2.2l-13.6-16.6c4.4-3.2,6.8-8.1,5.6-14.8
			c-2-11.3-10.9-13.3-20.8-11.5l-16.9,3l8.2,46.5L180.7,73.7z M178.8,35.2c5.3-0.9,8.3,0,9.1,4.4c0.8,4.3-1.6,7.1-6.9,8l-4.7,0.8
			L174.1,36L178.8,35.2z"/>
		<path class="st1" d="M124.8,132.4c-1.1-6.2-5.1-9.1-12-9.2l0-0.3c5.2-2.4,6.9-7.3,6.2-11.4c-1.6-9-9.6-10.2-19.3-8.5l-16,2.8
			l8.2,46.5l17.4-3.1C119.3,147.5,126.4,142,124.8,132.4z M96.4,112.6l4.4-0.8c4.5-0.8,6.8,0.1,7.4,3.3c0.6,3.3-1,5.7-5.7,6.5
			l-4.4,0.8L96.4,112.6z M101.5,141.7l-2-11.3l5.3-0.9c5.4-1,8.1,0.2,8.8,4c0.7,3.9-1.4,6.3-6.8,7.3L101.5,141.7z"/>
		<polygon class="st1" points="167.8,129.3 147.2,132.9 145.4,123.2 162.4,120.2 160.7,110.8 143.8,113.7 142.3,105.2 162.2,101.7 
			160.5,92.3 129.4,97.8 137.6,144.3 169.5,138.7 		"/>
		<path class="st1" d="M189.6,112.2l12.9,20.7l11.5-2l-8.2-46.5L195,86.2l2.7,15.2c1,5.6,3.2,12.1,4.6,17l-0.3,0l-5.7-9.6
			l-12.9-20.6l-11.5,2l8.2,46.5l10.7-1.9l-2.7-15.3c-1-5.6-3.2-11.8-4.6-16.9l0.3,0L189.6,112.2z"/>
		<polygon class="st1" points="123,200.2 118.1,172.6 128.9,170.7 127.2,161.2 94.5,167 96.1,176.4 106.9,174.5 111.8,202.2 
			101,204.1 102.7,213.6 135.4,207.8 133.8,198.3 		"/>
		<polygon class="st1" points="176.6,152.5 164.2,154.7 154.6,175.3 154.3,175.3 151.1,157 139.7,159 147.9,205.6 159.3,203.6 
			157.1,191.2 160.9,183.6 173.6,201 186.1,198.8 166,173.6 		"/>
		<path class="st1" d="M204.4,181.1c-4.3,0.8-6.9,4.3-6.1,8.7c0.8,4.4,4.5,7,8.8,6.2c4.3-0.8,6.9-4.5,6.1-8.9
			C212.3,182.8,208.6,180.3,204.4,181.1z"/>
		<path class="st1" d="M198.4,177.6l9.8-1.7c-2.2-8,9-11,7.4-20.4c-1.4-8-8.7-10.6-16.9-9.1c-5.7,1-10.1,4.5-12.8,9l7.2,4.6
			c1.8-2.2,3.6-3.9,6.5-4.4c2.6-0.5,5.1,0.5,5.6,3.3C206,163.8,195.3,168.4,198.4,177.6z"/>
	</g>
</g>
</svg>
